<svg xmlns="http://www.w3.org/2000/svg" version="1.1" xmlns:xlink="http://www.w3.org/1999/xlink" xmlns:svgjs="http://svgjs.com/svgjs" width="1000" height="1000"><rect width="1000" height="1000" rx="0" ry="0" fill="#fffafa"></rect><g transform="matrix(0.9259259259259259,0,0,0.9259259259259259,0,0)"><svg xmlns="http://www.w3.org/2000/svg" version="1.1" xmlns:xlink="http://www.w3.org/1999/xlink" xmlns:svgjs="http://svgjs.com/svgjs" width="1080" height="1080"><svg xmlns="http://www.w3.org/2000/svg" xmlns:xlink="http://www.w3.org/1999/xlink" width="1080" zoomAndPan="magnify" viewBox="0 0 810 809.999993" height="1080" preserveAspectRatio="xMidYMid meet" version="1.0"><defs><g></g><clipPath id="765e0865b2"><path d="M 367.898438 552.699219 L 384.378906 552.699219 L 384.378906 569.179688 L 367.898438 569.179688 Z M 367.898438 552.699219 " clip-rule="nonzero"></path></clipPath><clipPath id="17f5f3a7a7"><path d="M 376.136719 552.699219 C 371.585938 552.699219 367.898438 556.390625 367.898438 560.941406 C 367.898438 565.492188 371.585938 569.179688 376.136719 569.179688 C 380.6875 569.179688 384.378906 565.492188 384.378906 560.941406 C 384.378906 556.390625 380.6875 552.699219 376.136719 552.699219 Z M 376.136719 552.699219 " clip-rule="nonzero"></path></clipPath><clipPath id="b50a08875b"><path d="M 396.761719 552.699219 L 413.238281 552.699219 L 413.238281 569.179688 L 396.761719 569.179688 Z M 396.761719 552.699219 " clip-rule="nonzero"></path></clipPath><clipPath id="089858061d"><path d="M 405 552.699219 C 400.449219 552.699219 396.761719 556.390625 396.761719 560.941406 C 396.761719 565.492188 400.449219 569.179688 405 569.179688 C 409.550781 569.179688 413.238281 565.492188 413.238281 560.941406 C 413.238281 556.390625 409.550781 552.699219 405 552.699219 Z M 405 552.699219 " clip-rule="nonzero"></path></clipPath><clipPath id="ac15b3e2e7"><path d="M 357.175781 240.820312 L 453 240.820312 L 453 377 L 357.175781 377 Z M 357.175781 240.820312 " clip-rule="nonzero"></path></clipPath><clipPath id="20e6fdfb35"><path d="M 287 281.734375 L 295 281.734375 L 295 335.734375 L 287 335.734375 Z M 287 281.734375 " clip-rule="nonzero"></path></clipPath><clipPath id="ea943269e0"><path d="M 308 300 L 315.25 300 L 315.25 318 L 308 318 Z M 308 300 " clip-rule="nonzero"></path></clipPath><clipPath id="a1b6d79e06"><path d="M 267.25 300 L 275 300 L 275 318 L 267.25 318 Z M 267.25 300 " clip-rule="nonzero"></path></clipPath><clipPath id="d42157de95"><path d="M 515 281.734375 L 523 281.734375 L 523 335.734375 L 515 335.734375 Z M 515 281.734375 " clip-rule="nonzero"></path></clipPath><clipPath id="844e656096"><path d="M 535 300 L 542.671875 300 L 542.671875 318 L 535 318 Z M 535 300 " clip-rule="nonzero"></path></clipPath><clipPath id="d251ea5686"><path d="M 494.671875 300 L 502 300 L 502 318 L 494.671875 318 Z M 494.671875 300 " clip-rule="nonzero"></path></clipPath><clipPath id="389f4b8666"><path d="M 425.621094 552.699219 L 442.101562 552.699219 L 442.101562 569.179688 L 425.621094 569.179688 Z M 425.621094 552.699219 " clip-rule="nonzero"></path></clipPath><clipPath id="1f025802c3"><path d="M 433.863281 552.699219 C 429.3125 552.699219 425.621094 556.390625 425.621094 560.941406 C 425.621094 565.492188 429.3125 569.179688 433.863281 569.179688 C 438.414062 569.179688 442.101562 565.492188 442.101562 560.941406 C 442.101562 556.390625 438.414062 552.699219 433.863281 552.699219 Z M 433.863281 552.699219 " clip-rule="nonzero"></path></clipPath></defs><rect x="-81" width="972" fill="#ffffff" y="-80.999999" height="971.999992" fill-opacity="1"></rect><rect x="-81" width="972" fill="#f6f6e9" y="-80.999999" height="971.999992" fill-opacity="1"></rect><g clip-path="url(#765e0865b2)"><g clip-path="url(#17f5f3a7a7)"><path fill="#ed5b2d" d="M 367.898438 552.699219 L 384.378906 552.699219 L 384.378906 569.179688 L 367.898438 569.179688 Z M 367.898438 552.699219 " fill-opacity="1" fill-rule="nonzero"></path></g></g><g clip-path="url(#b50a08875b)"><g clip-path="url(#089858061d)"><path fill="#ed5b2d" d="M 396.761719 552.699219 L 413.238281 552.699219 L 413.238281 569.179688 L 396.761719 569.179688 Z M 396.761719 552.699219 " fill-opacity="1" fill-rule="nonzero"></path></g></g><g clip-path="url(#ac15b3e2e7)"><path fill="#291b25" d="M 452.765625 301.636719 L 452.765625 306.566406 C 452.765625 331.296875 433.890625 351.695312 409.789062 354.089844 L 409.789062 367.273438 L 429.261719 367.273438 C 431.929688 367.273438 434.109375 369.453125 434.109375 372.121094 C 434.109375 374.789062 431.929688 376.96875 429.261719 376.96875 L 380.730469 376.96875 C 378.058594 376.96875 375.882812 374.789062 375.882812 372.121094 C 375.882812 369.453125 378.058594 367.273438 380.730469 367.273438 L 400.066406 367.273438 L 400.066406 354.0625 C 376.046875 351.613281 357.226562 331.242188 357.226562 306.566406 L 357.226562 301.636719 C 357.226562 298.96875 359.40625 296.789062 362.074219 296.789062 C 364.742188 296.789062 366.921875 298.96875 366.921875 301.636719 L 366.921875 306.566406 C 366.921875 327.5625 383.996094 344.640625 404.996094 344.640625 C 425.996094 344.640625 443.070312 327.5625 443.070312 306.566406 L 443.070312 301.636719 C 443.070312 298.96875 445.25 296.789062 447.917969 296.789062 C 450.585938 296.789062 452.765625 298.941406 452.765625 301.636719 Z M 404.996094 334.945312 C 420.191406 334.945312 432.53125 322.605469 432.53125 307.410156 L 432.53125 268.355469 C 432.53125 253.15625 420.191406 240.820312 404.996094 240.820312 C 389.800781 240.820312 377.460938 253.15625 377.460938 268.355469 L 377.460938 307.410156 C 377.460938 322.605469 389.800781 334.945312 404.996094 334.945312 Z M 404.996094 334.945312 " fill-opacity="1" fill-rule="nonzero"></path></g><g clip-path="url(#20e6fdfb35)"><path fill="#ed5b2d" d="M 291.226562 335.933594 C 289.292969 335.933594 287.730469 334.375 287.730469 332.441406 L 287.730469 285.34375 C 287.730469 283.410156 289.292969 281.851562 291.226562 281.851562 C 293.160156 281.851562 294.71875 283.410156 294.71875 285.34375 L 294.71875 332.441406 C 294.71875 334.375 293.160156 335.933594 291.226562 335.933594 Z M 291.226562 335.933594 " fill-opacity="1" fill-rule="nonzero"></path></g><path fill="#ed5b2d" d="M 301.484375 327.3125 C 299.554688 327.3125 297.992188 325.75 297.992188 323.816406 L 297.992188 293.96875 C 297.992188 292.035156 299.554688 290.472656 301.484375 290.472656 C 303.417969 290.472656 304.980469 292.035156 304.980469 293.96875 L 304.980469 323.816406 C 304.980469 325.710938 303.417969 327.3125 301.484375 327.3125 Z M 301.484375 327.3125 " fill-opacity="1" fill-rule="nonzero"></path><g clip-path="url(#ea943269e0)"><path fill="#ed5b2d" d="M 311.746094 317.421875 C 309.8125 317.421875 308.25 315.863281 308.25 313.929688 L 308.25 303.855469 C 308.25 301.921875 309.8125 300.363281 311.746094 300.363281 C 313.679688 300.363281 315.238281 301.921875 315.238281 303.855469 L 315.238281 313.964844 C 315.238281 315.863281 313.640625 317.421875 311.746094 317.421875 Z M 311.746094 317.421875 " fill-opacity="1" fill-rule="nonzero"></path></g><path fill="#ed5b2d" d="M 281.003906 327.3125 C 279.070312 327.3125 277.511719 325.75 277.511719 323.816406 L 277.511719 293.96875 C 277.511719 292.035156 279.070312 290.472656 281.003906 290.472656 C 282.9375 290.472656 284.5 292.035156 284.5 293.96875 L 284.5 323.816406 C 284.460938 325.710938 282.898438 327.3125 281.003906 327.3125 Z M 281.003906 327.3125 " fill-opacity="1" fill-rule="nonzero"></path><g clip-path="url(#a1b6d79e06)"><path fill="#ed5b2d" d="M 270.746094 317.421875 C 268.8125 317.421875 267.25 315.863281 267.25 313.929688 L 267.25 303.820312 C 267.25 301.886719 268.8125 300.324219 270.746094 300.324219 C 272.679688 300.324219 274.238281 301.886719 274.238281 303.820312 L 274.238281 313.929688 C 274.238281 315.863281 272.640625 317.421875 270.746094 317.421875 Z M 270.746094 317.421875 " fill-opacity="1" fill-rule="nonzero"></path></g><g clip-path="url(#d42157de95)"><path fill="#ed5b2d" d="M 518.648438 335.933594 C 516.714844 335.933594 515.152344 334.375 515.152344 332.441406 L 515.152344 285.34375 C 515.152344 283.410156 516.714844 281.851562 518.648438 281.851562 C 520.582031 281.851562 522.140625 283.410156 522.140625 285.34375 L 522.140625 332.441406 C 522.140625 334.375 520.582031 335.933594 518.648438 335.933594 Z M 518.648438 335.933594 " fill-opacity="1" fill-rule="nonzero"></path></g><path fill="#ed5b2d" d="M 528.90625 327.3125 C 526.972656 327.3125 525.414062 325.75 525.414062 323.816406 L 525.414062 293.96875 C 525.414062 292.035156 526.972656 290.472656 528.90625 290.472656 C 530.839844 290.472656 532.402344 292.035156 532.402344 293.96875 L 532.402344 323.816406 C 532.402344 325.710938 530.839844 327.3125 528.90625 327.3125 Z M 528.90625 327.3125 " fill-opacity="1" fill-rule="nonzero"></path><g clip-path="url(#844e656096)"><path fill="#ed5b2d" d="M 539.167969 317.421875 C 537.234375 317.421875 535.671875 315.863281 535.671875 313.929688 L 535.671875 303.855469 C 535.671875 301.921875 537.234375 300.363281 539.167969 300.363281 C 541.097656 300.363281 542.660156 301.921875 542.660156 303.855469 L 542.660156 313.964844 C 542.660156 315.863281 541.0625 317.421875 539.167969 317.421875 Z M 539.167969 317.421875 " fill-opacity="1" fill-rule="nonzero"></path></g><path fill="#ed5b2d" d="M 508.425781 327.3125 C 506.492188 327.3125 504.929688 325.75 504.929688 323.816406 L 504.929688 293.96875 C 504.929688 292.035156 506.492188 290.472656 508.425781 290.472656 C 510.359375 290.472656 511.917969 292.035156 511.917969 293.96875 L 511.917969 323.816406 C 511.882812 325.710938 510.320312 327.3125 508.425781 327.3125 Z M 508.425781 327.3125 " fill-opacity="1" fill-rule="nonzero"></path><g clip-path="url(#d251ea5686)"><path fill="#ed5b2d" d="M 498.167969 317.421875 C 496.234375 317.421875 494.671875 315.863281 494.671875 313.929688 L 494.671875 303.820312 C 494.671875 301.886719 496.234375 300.324219 498.167969 300.324219 C 500.097656 300.324219 501.660156 301.886719 501.660156 303.820312 L 501.660156 313.929688 C 501.660156 315.863281 500.0625 317.421875 498.167969 317.421875 Z M 498.167969 317.421875 " fill-opacity="1" fill-rule="nonzero"></path></g><g clip-path="url(#389f4b8666)"><g clip-path="url(#1f025802c3)"><path fill="#ed5b2d" d="M 425.621094 552.699219 L 442.101562 552.699219 L 442.101562 569.179688 L 425.621094 569.179688 Z M 425.621094 552.699219 " fill-opacity="1" fill-rule="nonzero"></path></g></g><g fill="#291b25" fill-opacity="1"><g transform="translate(270.63522, 462.980157)"><g><path d="M 5.671875 -35.046875 C 5.671875 -34.390625 5.75 -33.75 5.671875 -33.03125 C 5.671875 -32.390625 5.8125 -31.734375 5.8125 -31.015625 C 5.8125 -30.453125 5.671875 -29.734375 5.671875 -29.078125 C 5.671875 -28.4375 5.8125 -27.796875 5.8125 -27.078125 C 5.8125 -26.421875 5.75 -25.78125 5.75 -25.140625 C 5.75 -24.421875 5.53125 -23.765625 5.53125 -23.125 C 5.53125 -22.484375 5.59375 -21.765625 5.59375 -21.109375 C 5.59375 -20.46875 5.59375 -19.8125 5.59375 -19.171875 C 5.59375 -18.53125 5.53125 -17.8125 5.53125 -17.15625 C 5.453125 -16.515625 5.671875 -15.875 5.671875 -15.21875 C 5.671875 -14.5 5.75 -13.859375 5.75 -13.28125 C 5.75 -12.5625 5.671875 -11.921875 5.671875 -11.28125 C 5.671875 -10.5625 5.671875 -9.90625 5.671875 -9.328125 C 5.75 -8.546875 5.59375 -7.90625 5.59375 -7.328125 C 5.671875 -6.75 5.75 -6.03125 5.75 -5.3125 C 5.75 -4.59375 5.59375 -3.875 5.59375 -3.234375 C 5.59375 -2.4375 5.59375 -1.71875 5.59375 -1.15625 C 5.53125 -0.5 6.109375 0.078125 6.828125 0.078125 C 7.390625 0.078125 8.109375 0 8.828125 0 C 9.546875 0 10.203125 0 10.921875 0 C 11.640625 0 12.359375 -0.078125 13 -0.078125 C 13.640625 0 14.296875 0 14.9375 0.078125 C 15.578125 0.078125 16.296875 0 16.953125 0 C 17.59375 0 18.234375 0.140625 18.890625 0.140625 C 19.609375 0.140625 20.25 0 20.890625 0 C 21.546875 0 22.1875 0 22.90625 0 C 23.546875 -0.078125 24.203125 0.078125 24.84375 0 C 25.5 0 26.21875 -0.140625 26.859375 -0.21875 C 27.578125 -0.21875 28.296875 -0.078125 28.9375 -0.078125 C 29.65625 -0.140625 30.375 -0.078125 31.015625 -0.21875 C 31.671875 -0.28125 32.3125 -0.578125 33.03125 -0.859375 C 33.46875 -1 33.828125 -1.515625 33.890625 -2.15625 C 34.046875 -2.65625 33.96875 -3.296875 33.96875 -3.8125 C 33.96875 -4.234375 33.890625 -5.03125 33.890625 -5.671875 C 33.890625 -6.46875 33.75 -7.1875 33.25 -7.390625 C 32.671875 -7.6875 31.953125 -7.90625 31.171875 -7.96875 C 30.453125 -8.046875 29.734375 -8.109375 29.015625 -8.109375 C 28.359375 -8.109375 27.796875 -7.90625 27.21875 -7.90625 C 26.640625 -7.90625 26.0625 -8.046875 25.421875 -8.046875 C 24.84375 -7.96875 24.265625 -7.828125 23.703125 -7.828125 C 23.125 -7.828125 22.546875 -7.75 21.90625 -7.75 C 21.328125 -7.75 20.75 -7.90625 20.171875 -7.90625 C 19.609375 -7.90625 18.953125 -7.90625 18.390625 -7.90625 C 17.8125 -7.90625 17.15625 -7.96875 16.59375 -7.96875 C 15.9375 -7.96875 15.375 -7.828125 14.859375 -7.90625 C 13.78125 -7.90625 13.71875 -7.25 13.21875 -7.96875 C 12.5625 -8.90625 13.0625 -8.828125 13.0625 -10.125 C 13.140625 -10.765625 13.28125 -11.5625 13.359375 -12.359375 C 13.359375 -13.0625 13.359375 -13.859375 13.359375 -14.578125 C 13.359375 -15.21875 13.421875 -15.875 13.5 -16.59375 C 13.5 -17.234375 13.359375 -17.875 13.359375 -18.53125 C 13.359375 -19.25 13.421875 -19.890625 13.5 -20.53125 C 13.5 -21.1875 13.421875 -21.90625 13.421875 -22.546875 C 13.421875 -23.203125 13.640625 -23.84375 13.71875 -24.5625 C 13.71875 -25.203125 13.421875 -25.859375 13.5 -26.5 C 13.5 -27.21875 13.640625 -27.859375 13.640625 -28.515625 C 13.640625 -29.15625 13.71875 -29.875 13.71875 -30.515625 C 13.71875 -31.171875 13.640625 -31.8125 13.640625 -32.53125 C 13.640625 -33.171875 13.71875 -33.828125 13.71875 -34.46875 C 13.71875 -35.1875 13.78125 -35.828125 13.78125 -36.484375 C 13.78125 -37.125 13.71875 -37.84375 13.71875 -38.484375 C 13.71875 -39.0625 13.859375 -39.640625 13.859375 -40.21875 C 13.859375 -40.796875 13.859375 -41.359375 13.859375 -41.9375 C 13.9375 -42.515625 13.71875 -43.09375 13.71875 -43.65625 C 13.640625 -44.3125 13.28125 -44.59375 12.703125 -44.8125 C 12.203125 -45.03125 11.640625 -45.3125 11.0625 -45.3125 C 10.40625 -45.390625 9.765625 -45.234375 9.40625 -45.171875 C 8.828125 -45.09375 7.90625 -45.234375 7.109375 -44.953125 C 6.46875 -44.8125 5.953125 -44.453125 5.890625 -43.453125 C 5.8125 -42.796875 5.75 -42.078125 5.8125 -41.296875 C 5.8125 -40.578125 5.8125 -39.859375 5.8125 -39.140625 C 5.8125 -38.421875 5.75 -37.625 5.75 -36.984375 C 5.75 -36.484375 5.75 -35.828125 5.671875 -35.046875 Z M 5.671875 -35.046875 "></path></g></g></g><g fill="#291b25" fill-opacity="1"><g transform="translate(300.221622, 462.980157)"><g><path d="M 13.5 -24.625 C 13.5 -25.28125 13.5 -25.921875 13.5 -26.578125 C 13.5 -27.21875 13.5 -27.9375 13.5 -28.578125 C 13.5 -29.234375 13.640625 -29.875 13.640625 -30.515625 C 13.640625 -31.171875 13.78125 -31.890625 13.78125 -32.53125 C 13.78125 -33.171875 13.640625 -33.828125 13.640625 -34.46875 C 13.640625 -35.109375 13.578125 -35.765625 13.578125 -36.40625 C 13.578125 -37.125 13.640625 -37.765625 13.640625 -38.421875 C 13.640625 -39.0625 13.578125 -39.71875 13.578125 -40.359375 C 13.578125 -41.078125 13.78125 -41.71875 13.71875 -42.296875 C 13.640625 -43.09375 13.421875 -43.734375 13.21875 -44.234375 C 12.921875 -44.875 12.359375 -45.03125 11.640625 -45.171875 C 11.125 -45.234375 10.484375 -45.390625 9.6875 -45.390625 C 8.96875 -45.390625 8.328125 -45.3125 7.828125 -45.234375 C 7.1875 -45.09375 6.609375 -45.03125 6.25 -44.3125 C 6.03125 -43.875 5.890625 -43.296875 5.8125 -42.4375 C 5.75 -41.859375 5.75 -41.21875 5.75 -40.5 C 5.75 -39.859375 5.890625 -39.28125 5.890625 -38.640625 C 5.890625 -37.984375 5.890625 -37.34375 5.890625 -36.703125 C 5.8125 -36.046875 5.8125 -35.40625 5.8125 -34.75 C 5.8125 -34.109375 5.671875 -33.46875 5.671875 -32.8125 C 5.671875 -32.25 5.75 -31.59375 5.75 -30.953125 C 5.75 -30.3125 5.8125 -29.65625 5.8125 -29.015625 C 5.8125 -28.359375 5.59375 -27.71875 5.59375 -27.078125 C 5.59375 -26.421875 5.8125 -25.78125 5.8125 -25.140625 C 5.8125 -24.484375 5.75 -23.84375 5.75 -23.203125 C 5.75 -22.546875 5.59375 -21.96875 5.59375 -21.328125 C 5.59375 -20.6875 5.75 -20.03125 5.75 -19.390625 C 5.75 -18.75 5.53125 -18.09375 5.53125 -17.453125 C 5.53125 -16.796875 5.53125 -16.234375 5.53125 -15.578125 C 5.53125 -14.9375 5.671875 -14.296875 5.671875 -13.640625 C 5.671875 -13 5.53125 -12.359375 5.53125 -11.703125 C 5.53125 -11.125 5.671875 -10.484375 5.671875 -9.84375 C 5.671875 -9.1875 5.59375 -8.546875 5.59375 -7.90625 C 5.59375 -7.328125 5.453125 -6.671875 5.453125 -6.03125 C 5.453125 -5.453125 5.453125 -4.8125 5.390625 -4.015625 C 5.3125 -3.453125 5.3125 -2.796875 5.3125 -2.015625 C 5.25 -1.078125 5.671875 -0.4375 6.3125 -0.140625 C 7.03125 0.28125 8.046875 0.140625 8.46875 0.140625 C 9.125 0.140625 9.84375 0.078125 10.484375 0.078125 C 11.203125 0 11.921875 -0.078125 12.5 -0.21875 C 13.21875 -0.5 13.640625 -0.859375 13.578125 -1.578125 C 13.5 -2.15625 13.578125 -2.734375 13.578125 -3.296875 C 13.578125 -3.875 13.5 -4.453125 13.5 -4.953125 C 13.5 -5.53125 13.71875 -6.109375 13.71875 -6.671875 C 13.71875 -7.328125 13.640625 -7.96875 13.640625 -8.625 C 13.640625 -9.328125 13.71875 -9.984375 13.71875 -10.625 C 13.71875 -11.34375 13.640625 -12 13.640625 -12.640625 C 13.640625 -13.28125 13.640625 -14 13.640625 -14.65625 C 13.640625 -15.296875 13.640625 -16.015625 13.640625 -16.65625 C 13.640625 -17.3125 13.640625 -18.03125 13.640625 -18.671875 C 13.640625 -19.3125 13.640625 -19.96875 13.640625 -20.6875 C 13.640625 -21.328125 13.78125 -21.96875 13.78125 -22.6875 C 13.78125 -23.265625 13.5 -23.984375 13.5 -24.625 Z M 13.5 -24.625 "></path></g></g></g><g fill="#291b25" fill-opacity="1"><g transform="translate(313.506741, 462.980157)"><g><path d="M 13.859375 -26.421875 C 14.140625 -26.421875 14.65625 -25.703125 15.21875 -24.78125 C 15.515625 -24.265625 16.015625 -23.703125 16.375 -23.046875 C 16.734375 -22.484375 17.015625 -21.828125 17.3125 -21.1875 C 17.671875 -20.53125 17.875 -19.8125 18.171875 -19.3125 C 18.53125 -18.75 18.953125 -18.234375 19.3125 -17.671875 C 19.609375 -17.09375 19.96875 -16.515625 20.328125 -15.9375 C 20.6875 -15.4375 20.890625 -14.796875 21.25 -14.296875 C 21.609375 -13.71875 22.1875 -13.28125 22.484375 -12.703125 C 22.84375 -12.140625 23.265625 -11.640625 23.625 -11.0625 C 23.984375 -10.5625 24.265625 -9.984375 24.625 -9.40625 C 25.0625 -8.828125 25.421875 -8.328125 25.78125 -7.75 C 26.140625 -7.1875 26.359375 -6.609375 26.71875 -6.03125 C 27.078125 -5.453125 27.5 -4.953125 27.859375 -4.375 C 28.21875 -3.8125 28.515625 -3.15625 28.875 -2.578125 C 29.296875 -2.078125 29.796875 -1.578125 30.3125 -1.15625 C 30.8125 -0.796875 31.375 -0.4375 32.03125 -0.21875 C 32.671875 0 33.328125 0 34.109375 0 C 34.90625 0 35.46875 0 35.90625 -0.078125 C 36.703125 -0.28125 36.90625 -0.71875 37.0625 -1.359375 C 37.125 -1.859375 37.125 -2.4375 37.203125 -3.234375 C 37.203125 -3.875 37.125 -4.53125 37.203125 -5.171875 C 37.203125 -5.8125 37.34375 -6.46875 37.421875 -7.109375 C 37.421875 -7.75 37.265625 -8.40625 37.265625 -9.046875 C 37.265625 -9.6875 37.34375 -10.34375 37.34375 -10.984375 C 37.34375 -11.640625 37.484375 -12.28125 37.484375 -12.921875 C 37.484375 -13.578125 37.34375 -14.21875 37.421875 -14.9375 C 37.421875 -15.578125 37.5625 -16.234375 37.5625 -16.875 C 37.5625 -17.515625 37.625 -18.171875 37.625 -18.8125 C 37.625 -19.46875 37.484375 -20.109375 37.484375 -20.75 C 37.484375 -21.40625 37.703125 -22.046875 37.703125 -22.6875 C 37.703125 -23.40625 37.703125 -24.0625 37.703125 -24.703125 C 37.765625 -25.34375 37.625 -26 37.625 -26.640625 C 37.625 -27.28125 37.625 -27.9375 37.625 -28.578125 C 37.625 -29.234375 37.765625 -29.875 37.765625 -30.515625 C 37.765625 -31.171875 37.84375 -31.8125 37.84375 -32.390625 C 37.84375 -33.109375 37.703125 -33.75 37.703125 -34.328125 C 37.703125 -35.046875 37.921875 -35.6875 37.921875 -36.34375 C 37.921875 -36.984375 37.84375 -37.625 37.84375 -38.28125 C 37.84375 -38.921875 37.84375 -39.5625 37.84375 -40.21875 C 37.84375 -40.9375 37.984375 -41.5 37.921875 -42.078125 C 37.84375 -42.796875 37.765625 -43.453125 37.5625 -43.953125 C 37.265625 -44.59375 36.84375 -45.03125 36.1875 -45.234375 C 35.6875 -45.453125 35.046875 -45.3125 34.328125 -45.3125 C 33.75 -45.234375 33.109375 -45.234375 32.390625 -45.09375 C 31.890625 -45.03125 31.3125 -44.734375 30.65625 -44.53125 C 30.65625 -43.953125 30.515625 -43.453125 30.515625 -42.734375 C 30.453125 -42.15625 30.515625 -41.5 30.515625 -40.859375 C 30.515625 -40.21875 30.375 -39.5625 30.375 -38.921875 C 30.375 -38.28125 30.515625 -37.625 30.515625 -36.984375 C 30.515625 -36.40625 30.375 -35.765625 30.375 -35.109375 C 30.375 -34.46875 30.453125 -33.828125 30.453125 -33.171875 C 30.453125 -32.53125 30.234375 -31.890625 30.234375 -31.234375 C 30.234375 -30.65625 30.453125 -30.015625 30.453125 -29.375 C 30.453125 -28.71875 30.3125 -28.078125 30.3125 -27.4375 C 30.3125 -26.78125 30.234375 -26.140625 30.234375 -25.5625 C 30.234375 -24.921875 30.3125 -24.265625 30.3125 -23.625 C 30.3125 -22.984375 30.234375 -22.328125 30.234375 -21.765625 C 30.15625 -21.046875 30.09375 -20.390625 30.09375 -19.890625 C 30.015625 -18.671875 30.015625 -17.953125 29.953125 -18.03125 C 29.296875 -18.09375 28.796875 -18.75 28.296875 -19.46875 C 27.859375 -20.171875 27.5 -21.046875 27.21875 -21.46875 C 26.859375 -21.96875 26.359375 -22.484375 26.0625 -22.984375 C 25.703125 -23.546875 25.34375 -24.125 24.984375 -24.703125 C 24.625 -25.203125 24.484375 -25.859375 24.125 -26.421875 C 23.765625 -27 23.265625 -27.4375 22.90625 -28 C 22.625 -28.578125 22.265625 -29.078125 21.90625 -29.65625 C 21.546875 -30.234375 21.25 -30.8125 20.890625 -31.375 C 20.53125 -31.953125 20.25 -32.53125 19.96875 -33.109375 C 19.609375 -33.609375 19.25 -34.1875 18.890625 -34.75 C 18.53125 -35.328125 18.3125 -35.90625 17.953125 -36.484375 C 17.671875 -37.0625 17.15625 -37.484375 16.796875 -38.0625 C 16.4375 -38.5625 16.234375 -39.203125 15.875 -39.71875 C 15.515625 -40.28125 15.078125 -40.796875 14.71875 -41.359375 C 14.4375 -41.9375 14.078125 -42.515625 13.78125 -43.015625 C 13.359375 -43.8125 13 -44.234375 12.5625 -44.671875 C 12.0625 -45.09375 11.5625 -45.234375 10.765625 -45.3125 C 10.265625 -45.390625 9.546875 -45.390625 8.765625 -45.3125 C 7.609375 -45.390625 6.96875 -45.390625 6.53125 -45.390625 C 5.671875 -45.3125 5.59375 -45.03125 5.59375 -43.734375 C 5.59375 -43.09375 5.75 -42.4375 5.75 -41.796875 C 5.75 -41.15625 5.75 -40.5 5.75 -39.859375 C 5.75 -39.203125 5.53125 -38.5625 5.53125 -37.921875 C 5.53125 -37.265625 5.59375 -36.625 5.59375 -35.984375 C 5.59375 -35.328125 5.53125 -34.6875 5.59375 -34.046875 C 5.59375 -33.390625 5.671875 -32.75 5.671875 -32.09375 C 5.671875 -31.453125 5.75 -30.8125 5.75 -30.15625 C 5.75 -29.515625 5.671875 -28.875 5.671875 -28.21875 C 5.671875 -27.578125 5.53125 -26.921875 5.53125 -26.359375 C 5.59375 -25.703125 5.75 -25.0625 5.75 -24.421875 C 5.75 -23.765625 5.8125 -23.125 5.8125 -22.484375 C 5.8125 -21.828125 5.75 -21.1875 5.75 -20.53125 C 5.75 -19.890625 5.75 -19.25 5.75 -18.59375 C 5.75 -18.03125 5.8125 -17.3125 5.8125 -16.65625 C 5.8125 -16.015625 5.75 -15.375 5.75 -14.65625 C 5.75 -14 5.75 -13.359375 5.75 -12.640625 C 5.75 -12 5.59375 -11.34375 5.59375 -10.625 C 5.59375 -9.984375 5.75 -9.328125 5.75 -8.6875 C 5.75 -7.96875 5.671875 -7.328125 5.59375 -6.671875 C 5.59375 -6.03125 5.671875 -5.3125 5.671875 -4.671875 C 5.671875 -4.015625 5.59375 -3.296875 5.59375 -2.734375 C 5.59375 -1.859375 5.75 -1.296875 6.03125 -0.859375 C 6.3125 -0.359375 6.828125 0 7.546875 0.140625 C 8.046875 0.28125 8.6875 0.359375 9.40625 0.359375 C 10.203125 0.359375 10.84375 0.28125 11.421875 0.140625 C 12.140625 0 12.703125 -0.28125 13.0625 -0.859375 C 13.359375 -1.296875 13.421875 -1.9375 13.5 -2.734375 C 13.5 -3.234375 13.5 -3.875 13.421875 -4.53125 C 13.421875 -5.171875 13.421875 -5.75 13.421875 -6.390625 C 13.359375 -7.03125 13.359375 -7.6875 13.359375 -8.1875 C 13.359375 -8.90625 13.359375 -9.625 13.359375 -10.265625 C 13.28125 -10.984375 13.28125 -11.640625 13.28125 -12.28125 C 13.28125 -13 13.28125 -13.71875 13.28125 -14.359375 C 13.28125 -15.078125 13.359375 -15.734375 13.359375 -16.4375 C 13.359375 -17.09375 13.5 -17.8125 13.5 -18.453125 C 13.5 -19.171875 13.359375 -19.8125 13.359375 -20.53125 C 13.359375 -21.1875 13.359375 -21.90625 13.359375 -22.625 C 13.359375 -23.265625 13.359375 -23.90625 13.28125 -24.703125 C 13.359375 -25.5 13.0625 -26.578125 13.859375 -26.421875 Z M 13.859375 -26.421875 "></path></g></g></g><g fill="#291b25" fill-opacity="1"><g transform="translate(350.705179, 462.980157)"><g><path d="M 13.359375 -31.171875 C 13.359375 -31.8125 13.5 -32.453125 13.421875 -33.171875 C 13.421875 -33.890625 13.28125 -34.546875 13.28125 -35.1875 C 13.28125 -35.90625 13.359375 -36.625 13.359375 -37.203125 C 13.359375 -37.703125 13.140625 -38.34375 13.0625 -39.0625 C 13.0625 -39.640625 13 -40.28125 13 -40.9375 C 12.921875 -41.65625 13.0625 -42.296875 13.0625 -42.796875 C 13 -43.59375 12.78125 -44.09375 12.5 -44.53125 C 12.203125 -45.03125 11.703125 -45.171875 10.984375 -45.234375 C 10.484375 -45.3125 9.90625 -45.390625 9.1875 -45.3125 C 8.46875 -45.3125 7.90625 -45.3125 7.390625 -45.234375 C 6.671875 -45.09375 6.25 -44.734375 5.953125 -44.234375 C 5.75 -43.8125 5.453125 -43.296875 5.53125 -42.515625 C 5.53125 -42.078125 5.59375 -41.359375 5.59375 -40.640625 C 5.59375 -39.921875 5.53125 -39.203125 5.53125 -38.78125 C 5.53125 -38.125 5.53125 -37.484375 5.53125 -36.84375 C 5.53125 -36.1875 5.671875 -35.546875 5.671875 -34.90625 C 5.671875 -34.25 5.671875 -33.609375 5.671875 -32.96875 C 5.671875 -32.25 5.59375 -31.59375 5.59375 -30.953125 C 5.59375 -30.3125 5.75 -29.65625 5.75 -29.015625 C 5.75 -28.359375 5.671875 -27.71875 5.671875 -27.078125 C 5.671875 -26.421875 5.671875 -25.703125 5.671875 -25.0625 C 5.671875 -24.421875 5.59375 -23.765625 5.59375 -23.125 C 5.59375 -22.484375 5.59375 -21.828125 5.59375 -21.1875 C 5.59375 -20.53125 5.59375 -19.890625 5.59375 -19.25 C 5.59375 -18.53125 5.671875 -17.875 5.671875 -17.234375 C 5.671875 -16.59375 5.53125 -15.9375 5.59375 -15.296875 C 5.59375 -14.65625 5.8125 -14 5.8125 -13.359375 C 5.8125 -12.703125 5.75 -12.0625 5.75 -11.34375 C 5.75 -10.703125 5.8125 -10.046875 5.8125 -9.40625 C 5.8125 -8.765625 5.671875 -8.109375 5.671875 -7.328125 C 5.671875 -6.671875 5.75 -5.953125 5.75 -5.25 C 5.75 -4.59375 5.75 -3.875 5.671875 -3.15625 C 5.671875 -2.4375 5.59375 -1.859375 5.75 -1.4375 C 5.953125 -0.859375 6.390625 -0.578125 6.96875 -0.359375 C 7.390625 -0.140625 7.96875 -0.078125 8.625 0 C 9.125 0 9.6875 0.140625 10.34375 0.140625 C 11.203125 0.140625 11.921875 -0.078125 12.359375 -0.359375 C 13 -0.71875 13.28125 -1.359375 13.5 -2.015625 C 13.640625 -2.65625 13.859375 -3.296875 13.859375 -4.09375 C 13.9375 -4.671875 14 -5.3125 14 -5.953125 C 14 -6.609375 14 -7.1875 14 -7.828125 C 14 -8.46875 13.859375 -9.125 13.859375 -9.6875 C 13.78125 -10.34375 13.859375 -10.984375 13.859375 -11.640625 C 13.78125 -12.28125 13.859375 -12.921875 13.859375 -13.5 C 13.9375 -14.140625 13.9375 -14.796875 14.078125 -15.375 C 14.296875 -16.015625 14.5 -16.59375 14.796875 -17.09375 C 15.078125 -17.671875 15.375 -18.234375 15.796875 -18.75 C 16.234375 -19.171875 16.734375 -19.53125 17.3125 -19.96875 C 17.734375 -20.328125 18.234375 -20.828125 18.8125 -21.1875 C 19.109375 -20.6875 19.46875 -19.890625 19.8125 -19.171875 C 20.171875 -18.53125 20.53125 -17.875 20.828125 -17.234375 C 21.1875 -16.4375 21.546875 -15.796875 21.828125 -15.296875 C 22.125 -14.71875 22.40625 -14.140625 22.6875 -13.578125 C 22.984375 -13 23.34375 -12.421875 23.625 -11.84375 C 23.90625 -11.28125 24.34375 -10.765625 24.625 -10.203125 C 24.921875 -9.625 25.203125 -9.046875 25.5 -8.46875 C 25.78125 -7.90625 26 -7.25 26.28125 -6.75 C 26.578125 -6.109375 26.71875 -5.453125 27 -4.953125 C 27.28125 -4.3125 27.578125 -3.734375 27.796875 -3.234375 C 28.15625 -2.578125 28.4375 -1.9375 28.65625 -1.515625 C 29.078125 -0.796875 29.59375 -0.4375 30.015625 -0.140625 C 30.59375 0.21875 31.171875 0.359375 31.890625 0.28125 C 32.453125 0.21875 33.03125 0.140625 33.75 0.140625 C 34.46875 0.140625 35.109375 0.140625 35.6875 0.140625 C 36.546875 0.140625 37.125 -0.140625 37.484375 -0.5 C 37.765625 -0.859375 37.765625 -1.359375 37.484375 -2.296875 C 37.265625 -2.796875 37.125 -3.375 36.703125 -4.09375 C 36.34375 -4.8125 36.125 -5.453125 35.828125 -5.953125 C 35.46875 -6.671875 34.96875 -7.1875 34.6875 -7.6875 C 34.25 -8.40625 34.1875 -9.125 33.890625 -9.546875 C 33.53125 -10.203125 33.109375 -10.625 32.75 -11.28125 C 32.453125 -11.84375 32.171875 -12.421875 31.890625 -13 C 31.53125 -13.578125 31.375 -14.21875 31.09375 -14.796875 C 30.8125 -15.375 30.375 -15.875 30.09375 -16.4375 C 29.734375 -17.015625 29.375 -17.515625 29.015625 -18.09375 C 28.71875 -18.671875 28.359375 -19.25 28 -19.8125 C 27.71875 -20.390625 27.5 -21.046875 27.21875 -21.609375 C 26.921875 -22.1875 26.640625 -22.765625 26.359375 -23.34375 C 26 -23.90625 25.5625 -24.484375 25.28125 -24.984375 C 24.78125 -26 24.484375 -25.78125 24.421875 -26.78125 C 24.34375 -27.796875 24.78125 -27.578125 25.34375 -28.515625 C 25.703125 -29.015625 26 -29.734375 26.421875 -30.234375 C 26.78125 -30.59375 27.140625 -31.09375 27.578125 -31.671875 C 27.9375 -32.09375 28.515625 -32.53125 28.875 -33.03125 C 29.234375 -33.53125 29.65625 -33.96875 30.015625 -34.546875 C 30.375 -34.96875 30.734375 -35.546875 31.09375 -36.046875 C 31.453125 -36.546875 31.734375 -37.125 32.09375 -37.625 C 32.453125 -38.203125 32.96875 -38.5625 33.25 -39.0625 C 33.6875 -39.640625 33.96875 -40.140625 34.328125 -40.640625 C 34.6875 -41.21875 34.96875 -41.796875 35.265625 -42.21875 C 35.765625 -42.875 35.90625 -43.515625 35.765625 -44.015625 C 35.625 -44.59375 35.265625 -45.03125 34.390625 -45.234375 C 33.890625 -45.390625 33.25 -45.390625 32.453125 -45.390625 C 31.59375 -45.3125 31.015625 -45.453125 30.453125 -45.390625 C 29.59375 -45.390625 29.078125 -45.171875 28.578125 -44.953125 C 28.078125 -44.734375 27.578125 -44.453125 27 -43.8125 C 26.578125 -43.375 26.28125 -42.796875 25.921875 -42.296875 C 25.5 -41.859375 24.984375 -41.4375 24.625 -40.9375 C 24.265625 -40.5 23.984375 -39.921875 23.625 -39.421875 C 23.265625 -38.921875 22.90625 -38.421875 22.484375 -37.984375 C 22.046875 -37.421875 21.546875 -36.984375 21.109375 -36.484375 C 20.6875 -35.984375 20.25 -35.40625 19.8125 -34.90625 C 19.390625 -34.390625 18.953125 -33.890625 18.53125 -33.390625 C 18.03125 -32.890625 17.453125 -32.453125 17.015625 -31.953125 C 16.59375 -31.453125 16.15625 -30.953125 15.734375 -30.453125 C 15.296875 -29.953125 14.859375 -29.375 14.359375 -28.875 C 14.078125 -28.578125 13.71875 -28.71875 13.71875 -29.15625 C 13.640625 -29.734375 13.359375 -30.375 13.359375 -31.171875 Z M 13.359375 -31.171875 "></path></g></g></g><g fill="#291b25" fill-opacity="1"><g transform="translate(384.672097, 462.980157)"><g><path d="M 17.515625 -26.21875 C 16.875 -26.21875 16.15625 -26.21875 15.375 -26.21875 C 14.71875 -26.28125 14 -26.21875 13.28125 -26.21875 C 12.5625 -26.21875 11.84375 -26.21875 11.125 -26.21875 C 10.34375 -26.21875 9.625 -26.21875 8.96875 -26.140625 C 8.1875 -26.140625 7.46875 -26.140625 6.828125 -26.140625 C 5.8125 -26.140625 5.09375 -26.0625 4.734375 -26.0625 C 3.734375 -26 3.09375 -25.703125 2.65625 -25.0625 C 2.296875 -24.484375 2.15625 -23.703125 2.15625 -22.6875 C 2.078125 -21.609375 2.15625 -20.828125 2.515625 -20.328125 C 2.875 -19.671875 3.59375 -19.390625 4.671875 -19.3125 C 5.25 -19.3125 5.890625 -19.25 6.671875 -19.25 C 7.328125 -19.171875 7.96875 -19.25 8.6875 -19.25 C 9.328125 -19.25 9.984375 -19.25 10.703125 -19.25 C 11.34375 -19.171875 12.0625 -19.171875 12.703125 -19.171875 C 13.359375 -19.171875 14.078125 -19.171875 14.71875 -19.171875 C 15.4375 -19.171875 16.09375 -19.171875 16.734375 -19.171875 C 17.453125 -19.171875 18.09375 -19.171875 18.75 -19.25 C 19.46875 -19.25 20.171875 -19.171875 20.6875 -19.25 C 21.90625 -19.25 22.328125 -19.609375 22.484375 -20.328125 C 22.546875 -20.890625 22.40625 -21.6875 22.40625 -22.6875 C 22.40625 -23.765625 22.328125 -24.5625 21.90625 -25.140625 C 21.546875 -25.78125 20.828125 -26.0625 19.671875 -26.0625 C 19.3125 -26.0625 18.53125 -26.21875 17.515625 -26.21875 Z M 17.515625 -26.21875 "></path></g></g></g><g fill="#291b25" fill-opacity="1"><g transform="translate(403.343097, 462.980157)"><g><path d="M 26.359375 0.140625 C 27.078125 0 27.796875 -0.140625 28.515625 -0.359375 C 29.234375 -0.5 29.875 -0.9375 30.59375 -1.21875 C 31.234375 -1.515625 31.953125 -1.65625 32.609375 -2.078125 C 33.25 -2.4375 33.890625 -2.875 34.46875 -3.296875 C 35.109375 -3.875 35.46875 -4.53125 35.90625 -5.03125 C 36.40625 -5.671875 36.90625 -6.25 37.0625 -6.96875 C 37.203125 -7.609375 37.203125 -8.40625 36.84375 -9.1875 C 36.625 -9.765625 36.046875 -10.265625 35.46875 -10.984375 C 34.90625 -11.703125 34.390625 -12.203125 33.75 -12.28125 C 33.03125 -12.359375 32.390625 -11.84375 31.734375 -11.421875 C 31.09375 -11.0625 30.515625 -10.625 29.875 -10.125 C 29.296875 -9.625 28.71875 -9.125 28.078125 -8.765625 C 27.578125 -8.46875 26.921875 -8.328125 26.28125 -8.109375 C 25.703125 -7.96875 25.0625 -7.75 24.421875 -7.6875 C 23.84375 -7.609375 23.125 -7.75 22.546875 -7.75 C 21.90625 -7.828125 21.25 -7.90625 20.6875 -8.109375 C 20.03125 -8.265625 19.390625 -8.328125 18.8125 -8.625 C 18.171875 -8.90625 17.671875 -9.40625 17.15625 -9.765625 C 16.59375 -10.203125 16.09375 -10.625 15.65625 -11.203125 C 15.21875 -11.703125 14.71875 -12.203125 14.4375 -12.859375 C 14.078125 -13.421875 13.78125 -14.078125 13.5 -14.71875 C 13.28125 -15.375 13.0625 -16.015625 12.859375 -16.65625 C 12.703125 -17.3125 12.703125 -18.03125 12.5625 -18.75 C 12.5 -19.390625 12.421875 -20.109375 12.421875 -20.75 C 12.359375 -21.46875 12.140625 -22.125 12.140625 -22.765625 C 12.140625 -23.484375 12 -24.203125 12 -24.84375 C 12.0625 -25.5625 12.203125 -26.28125 12.28125 -26.921875 C 12.359375 -27.640625 12.359375 -28.359375 12.5 -29.015625 C 12.640625 -29.734375 13.0625 -30.375 13.28125 -31.015625 C 13.5 -31.671875 13.71875 -32.3125 14.078125 -32.890625 C 14.4375 -33.53125 14.65625 -34.25 15.15625 -34.75 C 15.578125 -35.265625 16.15625 -35.6875 16.796875 -36.046875 C 17.3125 -36.40625 17.953125 -36.84375 18.671875 -37.0625 C 19.25 -37.265625 20.03125 -37.203125 20.75 -37.265625 C 21.40625 -37.34375 21.96875 -37.34375 22.625 -37.265625 C 23.265625 -37.203125 23.84375 -37.125 24.421875 -36.984375 C 25.0625 -36.765625 25.640625 -36.625 26.21875 -36.34375 C 26.78125 -36.125 27.359375 -35.765625 27.859375 -35.40625 C 28.359375 -35.046875 28.875 -34.6875 29.375 -34.25 C 30.09375 -33.6875 30.65625 -33.171875 31.234375 -32.890625 C 32.03125 -32.453125 32.75 -32.53125 33.53125 -32.8125 C 34.046875 -33.03125 34.609375 -33.53125 35.328125 -34.1875 C 35.984375 -34.75 36.625 -35.109375 36.90625 -35.625 C 37.265625 -36.125 37.0625 -36.765625 36.84375 -37.625 C 36.625 -38.28125 36.34375 -38.84375 35.984375 -39.359375 C 35.546875 -39.921875 35.1875 -40.5 34.75 -40.9375 C 34.25 -41.4375 33.609375 -41.796875 33.03125 -42.21875 C 32.453125 -42.734375 32.03125 -43.296875 31.375 -43.65625 C 30.8125 -44.015625 30.09375 -44.3125 29.4375 -44.59375 C 28.796875 -44.875 28.078125 -44.953125 27.359375 -45.09375 C 26.71875 -45.3125 26.0625 -45.53125 25.421875 -45.671875 C 24.703125 -45.75 24.0625 -45.671875 23.34375 -45.671875 C 22.6875 -45.75 22.046875 -45.8125 21.40625 -45.8125 C 20.6875 -45.75 20.03125 -45.8125 19.3125 -45.75 C 18.671875 -45.671875 18.03125 -45.390625 17.375 -45.234375 C 16.734375 -45.09375 16.09375 -44.875 15.4375 -44.671875 C 14.796875 -44.375 14.140625 -44.234375 13.578125 -43.875 C 13 -43.59375 12.5 -43.09375 11.921875 -42.734375 C 11.421875 -42.296875 10.921875 -41.859375 10.40625 -41.4375 C 9.90625 -41 9.40625 -40.578125 8.96875 -40.078125 C 8.46875 -39.5 8.109375 -38.921875 7.6875 -38.34375 C 7.328125 -37.765625 6.890625 -37.203125 6.609375 -36.546875 C 6.3125 -35.90625 6.109375 -35.265625 5.890625 -34.546875 C 5.671875 -33.890625 5.3125 -33.328125 5.09375 -32.609375 C 4.890625 -31.953125 4.8125 -31.234375 4.671875 -30.515625 C 4.453125 -29.875 4.3125 -29.15625 4.234375 -28.515625 C 4.09375 -27.796875 4.09375 -27.078125 4.015625 -26.359375 C 3.953125 -25.640625 3.875 -24.984375 3.875 -24.265625 C 3.8125 -23.546875 3.875 -22.84375 3.875 -22.1875 C 3.875 -21.46875 3.875 -20.828125 3.875 -20.109375 C 3.953125 -19.46875 4.09375 -18.8125 4.171875 -18.171875 C 4.3125 -17.453125 4.234375 -16.796875 4.375 -16.09375 C 4.59375 -15.4375 4.890625 -14.859375 5.09375 -14.21875 C 5.25 -13.5 5.453125 -12.921875 5.75 -12.28125 C 5.953125 -11.640625 6.109375 -10.984375 6.390625 -10.34375 C 6.671875 -9.765625 7.109375 -9.1875 7.390625 -8.625 C 7.75 -7.96875 7.96875 -7.328125 8.328125 -6.75 C 8.6875 -6.25 9.046875 -5.59375 9.484375 -5.09375 C 9.84375 -4.53125 10.40625 -4.171875 10.921875 -3.65625 C 11.421875 -3.234375 11.84375 -2.65625 12.421875 -2.296875 C 12.921875 -1.859375 13.578125 -1.578125 14.140625 -1.296875 C 14.796875 -0.9375 15.4375 -0.796875 16.09375 -0.578125 C 16.734375 -0.359375 17.375 -0.21875 18.09375 -0.078125 C 18.75 0 19.390625 0.21875 20.03125 0.28125 C 20.75 0.359375 21.40625 0.5 22.125 0.5 C 22.765625 0.5 23.40625 0.28125 24.125 0.21875 C 24.84375 0.21875 25.5625 0.21875 26.359375 0.140625 Z M 26.359375 0.140625 "></path></g></g></g><g fill="#291b25" fill-opacity="1"><g transform="translate(437.66907, 462.980157)"><g><path d="M 14.4375 -8.109375 C 15.078125 -8.046875 15.734375 -7.90625 16.375 -7.90625 C 17.09375 -7.90625 17.734375 -7.90625 18.390625 -7.90625 C 19.03125 -7.90625 19.671875 -7.96875 20.328125 -7.96875 C 20.96875 -7.96875 21.609375 -7.96875 22.265625 -7.96875 C 22.90625 -8.046875 23.625 -8.1875 24.34375 -8.1875 C 25.140625 -8.109375 25.859375 -8.046875 26.5 -8.046875 C 27.71875 -7.96875 27.71875 -8.40625 28.65625 -7.96875 C 29.4375 -7.609375 28.9375 -7.25 29.515625 -6.390625 C 29.796875 -5.953125 30.234375 -5.53125 30.515625 -4.953125 C 30.8125 -4.453125 31.015625 -3.953125 31.234375 -3.375 C 31.53125 -2.875 31.8125 -2.296875 31.890625 -1.796875 C 32.09375 -1 32.453125 -0.640625 32.8125 -0.359375 C 33.25 -0.078125 33.75 -0.078125 34.46875 -0.078125 C 34.96875 -0.078125 35.625 0 36.265625 0 C 36.984375 0 37.5625 -0.140625 38.0625 -0.21875 C 38.84375 -0.359375 39.359375 -0.578125 39.5625 -1 C 39.78125 -1.4375 39.71875 -2.015625 39.421875 -2.796875 C 39.203125 -3.296875 39 -3.953125 38.703125 -4.59375 C 38.484375 -5.171875 38.421875 -5.890625 38.125 -6.46875 C 37.921875 -7.109375 37.484375 -7.609375 37.265625 -8.265625 C 36.984375 -8.90625 36.765625 -9.484375 36.484375 -10.125 C 36.265625 -10.703125 36.1875 -11.421875 35.984375 -12 C 35.6875 -12.640625 35.328125 -13.21875 35.109375 -13.78125 C 34.90625 -14.4375 34.546875 -15.015625 34.328125 -15.578125 C 34.109375 -16.15625 33.96875 -16.796875 33.75 -17.375 C 33.53125 -17.953125 33.171875 -18.53125 32.96875 -19.109375 C 32.75 -19.75 32.453125 -20.328125 32.25 -20.890625 C 32.03125 -21.46875 31.890625 -22.125 31.671875 -22.6875 C 31.453125 -23.34375 31.234375 -23.90625 31.015625 -24.484375 C 30.734375 -25.0625 30.515625 -25.640625 30.234375 -26.28125 C 30.015625 -26.859375 29.953125 -27.5 29.734375 -28.078125 C 29.515625 -28.71875 29.078125 -29.234375 28.875 -29.796875 C 28.65625 -30.375 28.515625 -31.015625 28.296875 -31.59375 C 28 -32.25 27.9375 -32.8125 27.71875 -33.46875 C 27.5 -34.046875 27.140625 -34.609375 26.859375 -35.1875 C 26.640625 -35.765625 26.5 -36.40625 26.28125 -36.984375 C 26 -37.5625 25.78125 -38.125 25.5625 -38.78125 C 25.34375 -39.359375 24.984375 -39.921875 24.78125 -40.5 C 24.5625 -41.078125 24.265625 -41.65625 24.0625 -42.21875 C 23.703125 -43.15625 23.625 -43.875 23.34375 -44.3125 C 22.765625 -45.171875 22.1875 -45.3125 21.46875 -45.390625 C 20.890625 -45.453125 20.25 -45.453125 19.3125 -45.390625 C 18.671875 -45.390625 18.3125 -45.3125 17.734375 -44.875 C 17.453125 -44.59375 16.953125 -44.3125 16.515625 -43.65625 C 16.296875 -43.234375 16.234375 -42.65625 15.9375 -42.015625 C 15.734375 -41.5 15.4375 -41 15.21875 -40.4375 C 15.015625 -39.859375 14.859375 -39.203125 14.65625 -38.5625 C 14.4375 -37.984375 14.21875 -37.421875 14 -36.765625 C 13.78125 -36.1875 13.578125 -35.546875 13.359375 -34.96875 C 13.140625 -34.328125 12.859375 -33.75 12.640625 -33.109375 C 12.421875 -32.53125 12.421875 -31.8125 12.203125 -31.234375 C 12 -30.59375 11.640625 -30.09375 11.421875 -29.4375 C 11.203125 -28.875 11.125 -28.21875 10.921875 -27.578125 C 10.703125 -26.921875 10.34375 -26.421875 10.125 -25.78125 C 9.984375 -25.203125 9.765625 -24.5625 9.546875 -23.90625 C 9.328125 -23.34375 9.1875 -22.6875 8.96875 -22.125 C 8.765625 -21.46875 8.546875 -20.890625 8.328125 -20.25 C 8.109375 -19.671875 7.96875 -19.03125 7.75 -18.390625 C 7.546875 -17.8125 7.109375 -17.234375 6.890625 -16.65625 C 6.671875 -16.09375 6.75 -15.375 6.53125 -14.71875 C 6.3125 -14.140625 6.109375 -13.578125 5.890625 -12.921875 C 5.671875 -12.359375 5.25 -11.78125 5.03125 -11.203125 C 4.8125 -10.5625 4.8125 -9.90625 4.59375 -9.328125 C 4.375 -8.6875 4.09375 -8.109375 3.875 -7.546875 C 3.734375 -7.1875 3.453125 -6.390625 3.09375 -5.53125 C 2.875 -4.890625 2.65625 -4.171875 2.375 -3.515625 C 2.078125 -2.578125 1.9375 -1.796875 1.9375 -1.4375 C 1.796875 -0.21875 2.21875 0.078125 3.15625 0.078125 C 3.8125 0.140625 4.59375 0 5.53125 0.078125 C 6.171875 0.140625 7.03125 0.140625 7.828125 0 C 8.625 -0.140625 9.1875 -0.4375 9.625 -1.15625 C 9.90625 -1.71875 10.265625 -2.21875 10.484375 -2.796875 C 10.703125 -3.375 10.921875 -3.953125 11.125 -4.53125 C 11.34375 -5.09375 11.484375 -5.671875 11.78125 -6.25 C 12 -6.828125 12.140625 -7.46875 12.421875 -8.046875 C 13.0625 -8.046875 13.78125 -8.109375 14.4375 -8.109375 Z M 15.375 -17.671875 C 15.578125 -18.3125 15.796875 -18.890625 16.015625 -19.46875 C 16.234375 -20.109375 16.4375 -20.6875 16.65625 -21.328125 C 16.875 -21.90625 17.09375 -22.484375 17.375 -23.046875 C 17.59375 -23.703125 17.734375 -24.265625 18.03125 -24.84375 C 18.234375 -25.5 18.671875 -26 18.890625 -26.578125 C 19.109375 -27.140625 19.109375 -27.859375 19.3125 -28.515625 C 19.53125 -29.078125 19.890625 -29.734375 20.109375 -30.375 C 20.46875 -29.734375 20.6875 -29.015625 20.96875 -28.515625 C 21.328125 -27.859375 21.765625 -27.359375 22.046875 -26.78125 C 22.40625 -26.21875 22.625 -25.5625 22.84375 -24.984375 C 23.125 -24.421875 23.34375 -23.765625 23.546875 -23.203125 C 23.84375 -22.546875 24.125 -21.96875 24.34375 -21.328125 C 24.625 -20.75 24.984375 -20.171875 25.203125 -19.609375 C 25.5 -18.953125 25.5625 -18.3125 25.78125 -17.671875 C 26.0625 -17.09375 26.359375 -16.515625 26.640625 -15.875 C 25.921875 -15.875 25.34375 -15.796875 24.703125 -15.796875 C 23.984375 -15.796875 23.34375 -15.796875 22.6875 -15.796875 C 21.96875 -15.796875 21.328125 -15.9375 20.6875 -15.9375 C 20.03125 -15.9375 19.390625 -15.875 18.671875 -15.875 C 18.03125 -15.875 17.375 -15.875 16.65625 -15.875 C 16.015625 -15.875 15.296875 -15.796875 14.578125 -15.796875 C 14.796875 -16.4375 15.15625 -17.09375 15.375 -17.671875 Z M 15.375 -17.671875 "></path></g></g></g><g fill="#291b25" fill-opacity="1"><g transform="translate(473.215844, 462.980157)"><g><path d="M 12.5 -34.25 C 12.703125 -34.90625 13 -35.46875 13.359375 -35.984375 C 13.71875 -36.484375 14.21875 -36.84375 14.71875 -37.203125 C 15.21875 -37.5625 15.65625 -38.0625 16.296875 -38.28125 C 16.875 -38.484375 17.515625 -38.5625 18.171875 -38.640625 C 18.890625 -38.78125 19.609375 -38.84375 20.25 -38.703125 C 20.96875 -38.5625 21.609375 -38.34375 22.265625 -38.0625 C 22.90625 -37.765625 23.546875 -37.484375 24.203125 -37.125 C 24.78125 -36.765625 25.421875 -36.34375 26 -35.984375 C 26.640625 -35.625 27.21875 -35.1875 27.796875 -34.90625 C 28.515625 -34.46875 29.015625 -34.328125 29.4375 -34.25 C 30.09375 -34.1875 30.59375 -34.328125 31.171875 -34.828125 C 31.53125 -35.1875 31.8125 -35.765625 32.3125 -36.34375 C 32.671875 -36.765625 33.109375 -37.484375 33.46875 -38.28125 C 33.75 -39.140625 34.046875 -40.078125 33.53125 -40.5 C 32.53125 -41.296875 32.09375 -41.578125 31.59375 -41.9375 C 31.171875 -42.21875 30.65625 -42.578125 29.59375 -43.234375 C 28.9375 -43.65625 28.21875 -43.875 27.640625 -44.171875 C 27 -44.453125 26.359375 -44.734375 25.703125 -44.953125 C 25.0625 -45.171875 24.421875 -45.453125 23.703125 -45.59375 C 23.046875 -45.75 22.328125 -45.953125 21.609375 -46.03125 C 20.96875 -46.109375 20.25 -45.953125 19.53125 -45.953125 C 18.8125 -45.953125 18.171875 -45.890625 17.59375 -45.8125 C 16.875 -45.75 16.234375 -45.75 15.578125 -45.59375 C 14.9375 -45.453125 14.359375 -45.234375 13.71875 -45.03125 C 13.140625 -44.8125 12.5625 -44.53125 12 -44.234375 C 11.34375 -43.953125 10.765625 -43.65625 10.265625 -43.296875 C 9.6875 -42.9375 9.1875 -42.515625 8.765625 -42.078125 C 8.265625 -41.578125 7.6875 -41.21875 7.328125 -40.71875 C 6.890625 -40.21875 6.671875 -39.5625 6.3125 -39 C 6.03125 -38.421875 5.671875 -37.921875 5.390625 -37.265625 C 5.171875 -36.703125 5.03125 -36.046875 4.890625 -35.40625 C 4.734375 -34.75 4.59375 -34.109375 4.53125 -33.46875 C 4.453125 -32.8125 4.453125 -32.171875 4.453125 -31.453125 C 4.453125 -30.8125 4.453125 -30.09375 4.59375 -29.4375 C 4.671875 -28.796875 4.890625 -28.078125 5.09375 -27.5 C 5.3125 -26.859375 5.75 -26.28125 6.03125 -25.703125 C 6.390625 -25.140625 6.828125 -24.5625 7.25 -24.0625 C 7.6875 -23.546875 8.265625 -23.203125 8.828125 -22.765625 C 9.328125 -22.328125 9.90625 -21.96875 10.484375 -21.6875 C 11.0625 -21.40625 11.703125 -21.109375 12.359375 -20.890625 C 12.921875 -20.6875 13.578125 -20.46875 14.140625 -20.25 C 14.796875 -20.03125 15.375 -19.8125 16.015625 -19.609375 C 16.59375 -19.390625 17.234375 -19.171875 17.8125 -18.953125 C 18.453125 -18.75 19.03125 -18.59375 19.671875 -18.3125 C 20.25 -18.09375 20.828125 -17.8125 21.40625 -17.59375 C 22.046875 -17.375 22.546875 -16.953125 23.203125 -16.734375 C 23.765625 -16.515625 24.421875 -16.375 24.984375 -16.09375 C 25.5625 -15.734375 26.0625 -15.375 26.5 -14.9375 C 26.921875 -14.4375 27.28125 -13.9375 27.4375 -13.28125 C 27.5 -12.703125 27.578125 -12.0625 27.4375 -11.34375 C 27.28125 -10.765625 27 -10.125 26.578125 -9.484375 C 26.21875 -8.96875 25.640625 -8.625 25.0625 -8.1875 C 24.5625 -7.75 23.90625 -7.46875 23.34375 -7.1875 C 22.6875 -6.890625 22.125 -6.609375 21.46875 -6.46875 C 20.75 -6.3125 20.109375 -6.390625 19.46875 -6.46875 C 18.75 -6.53125 18.09375 -6.671875 17.375 -6.890625 C 16.734375 -7.109375 16.09375 -7.390625 15.4375 -7.75 C 14.796875 -8.046875 14.140625 -8.328125 13.578125 -8.6875 C 12.921875 -9.046875 12.421875 -9.546875 11.84375 -9.984375 C 11.28125 -10.484375 10.625 -10.84375 10.265625 -11.34375 C 9.6875 -12 9.328125 -12.421875 8.828125 -12.5625 C 8.265625 -12.703125 7.828125 -12.359375 7.1875 -11.84375 C 6.75 -11.5625 6.3125 -11.125 5.8125 -10.625 C 5.25 -10.046875 4.671875 -9.546875 4.3125 -9.125 C 3.8125 -8.46875 3.375 -7.828125 3.59375 -7.1875 C 3.8125 -6.671875 4.234375 -6.109375 4.953125 -5.53125 C 5.25 -5.171875 5.671875 -4.671875 6.390625 -4.09375 C 6.828125 -3.65625 7.328125 -3.234375 7.90625 -2.796875 C 8.40625 -2.4375 9.046875 -2.15625 9.625 -1.796875 C 10.203125 -1.4375 10.765625 -1.15625 11.421875 -0.859375 C 12.0625 -0.578125 12.703125 -0.5 13.359375 -0.359375 C 14 -0.140625 14.578125 0.28125 15.296875 0.359375 C 15.875 0.5 16.59375 0.4375 17.3125 0.5 C 17.953125 0.578125 18.59375 0.796875 19.3125 0.796875 C 19.96875 0.796875 20.609375 0.71875 21.1875 0.71875 C 21.90625 0.640625 22.484375 0.5 23.125 0.4375 C 23.765625 0.359375 24.34375 0.140625 24.984375 0 C 25.640625 -0.140625 26.21875 -0.28125 26.78125 -0.5 C 27.4375 -0.71875 28 -0.9375 28.578125 -1.21875 C 29.15625 -1.515625 29.734375 -1.796875 30.234375 -2.15625 C 30.8125 -2.515625 31.234375 -3.015625 31.671875 -3.453125 C 32.171875 -3.8125 32.75 -4.171875 33.109375 -4.671875 C 33.53125 -5.171875 33.828125 -5.75 34.109375 -6.3125 C 34.390625 -6.890625 34.75 -7.390625 34.96875 -8.046875 C 35.1875 -8.625 35.328125 -9.265625 35.46875 -9.90625 C 35.546875 -10.484375 35.546875 -11.125 35.546875 -11.78125 C 35.546875 -12.421875 35.546875 -13.0625 35.46875 -13.71875 C 35.40625 -14.296875 35.265625 -14.9375 35.109375 -15.515625 C 34.96875 -16.15625 34.6875 -16.734375 34.46875 -17.3125 C 34.25 -17.875 34.109375 -18.453125 33.75 -19.03125 C 33.46875 -19.53125 33.03125 -20.03125 32.671875 -20.53125 C 32.25 -20.96875 31.734375 -21.40625 31.3125 -21.828125 C 30.8125 -22.1875 30.453125 -22.6875 29.875 -23.046875 C 29.375 -23.40625 28.875 -23.703125 28.296875 -23.984375 C 27.71875 -24.265625 27.140625 -24.484375 26.5 -24.703125 C 25.921875 -24.84375 25.34375 -24.984375 24.78125 -25.203125 C 24.265625 -25.34375 23.703125 -25.640625 23.125 -25.78125 C 22.625 -26 22.046875 -26.140625 21.46875 -26.359375 C 20.890625 -26.578125 20.328125 -26.640625 19.75 -26.859375 C 19.171875 -27.078125 18.53125 -27.21875 17.875 -27.5 C 17.3125 -27.71875 16.734375 -28.078125 16.15625 -28.359375 C 15.515625 -28.578125 14.9375 -28.875 14.359375 -29.234375 C 13.78125 -29.65625 13.359375 -30.09375 13 -30.59375 C 12.5625 -31.09375 12.203125 -31.734375 12.140625 -32.390625 C 12.140625 -33.03125 12.359375 -33.6875 12.5 -34.25 Z M 12.5 -34.25 "></path></g></g></g><g fill="#291b25" fill-opacity="1"><g transform="translate(506.321016, 462.980157)"><g><path d="M 21.96875 -37.421875 C 22.6875 -37.421875 23.40625 -37.34375 23.984375 -37.34375 C 24.703125 -37.34375 25.34375 -37.34375 26 -37.34375 C 26.71875 -37.34375 27.359375 -37.34375 28 -37.34375 C 28.875 -37.34375 29.515625 -37.5625 30.015625 -37.84375 C 30.59375 -38.203125 31.015625 -38.703125 31.171875 -39.5 C 31.3125 -40.078125 31.375 -40.796875 31.375 -41.578125 C 31.375 -42.296875 31.234375 -42.9375 31.09375 -43.453125 C 30.953125 -44.09375 30.59375 -44.671875 30.015625 -44.875 C 29.59375 -45.09375 28.9375 -45.171875 28.15625 -45.171875 C 27.5 -45.171875 26.859375 -45.171875 26.21875 -45.234375 C 25.5625 -45.234375 24.84375 -45.171875 24.203125 -45.171875 C 23.546875 -45.171875 22.90625 -45.234375 22.265625 -45.234375 C 21.609375 -45.234375 20.96875 -45.171875 20.328125 -45.171875 C 19.671875 -45.171875 19.03125 -45.3125 18.3125 -45.3125 C 17.671875 -45.3125 17.015625 -45.171875 16.375 -45.171875 C 15.734375 -45.171875 15.078125 -45.234375 14.4375 -45.234375 C 13.78125 -45.234375 13.140625 -45.234375 12.421875 -45.234375 C 11.78125 -45.3125 11.125 -45.390625 10.484375 -45.453125 C 9.84375 -45.453125 9.1875 -45.390625 8.546875 -45.390625 C 7.90625 -45.390625 7.25 -45.453125 6.53125 -45.453125 C 5.890625 -45.453125 5.25 -45.453125 4.59375 -45.453125 C 3.953125 -45.53125 3.15625 -45.453125 2.734375 -45.09375 C 2.296875 -44.671875 1.9375 -44.171875 1.796875 -43.65625 C 1.578125 -43.015625 1.71875 -42.375 1.71875 -41.859375 C 1.796875 -41.21875 1.515625 -40.5 1.578125 -39.859375 C 1.65625 -39.203125 1.9375 -38.640625 2.578125 -38.125 C 3.015625 -37.765625 3.59375 -37.484375 4.3125 -37.484375 C 4.890625 -37.421875 5.59375 -37.484375 6.171875 -37.421875 C 6.890625 -37.421875 7.609375 -37.421875 8.265625 -37.34375 C 8.96875 -37.265625 9.6875 -37.265625 10.265625 -37.203125 C 11.5625 -37.125 11.703125 -37.765625 12.359375 -36.984375 C 13 -36.1875 12.359375 -36.125 12.359375 -34.828125 C 12.359375 -34.1875 12.28125 -33.46875 12.359375 -32.671875 C 12.359375 -31.953125 12.5 -31.234375 12.5 -30.515625 C 12.5 -29.953125 12.28125 -29.296875 12.28125 -28.578125 C 12.28125 -27.9375 12.359375 -27.28125 12.359375 -26.640625 C 12.359375 -26 12.28125 -25.34375 12.28125 -24.703125 C 12.28125 -24.0625 12.203125 -23.40625 12.203125 -22.765625 C 12.203125 -22.125 12.28125 -21.40625 12.28125 -20.75 C 12.28125 -20.109375 12.28125 -19.46875 12.28125 -18.8125 C 12.28125 -18.171875 12.359375 -17.515625 12.359375 -16.875 C 12.359375 -16.234375 12.421875 -15.515625 12.421875 -14.859375 C 12.421875 -14.21875 12.28125 -13.578125 12.359375 -12.921875 C 12.359375 -12.28125 12.421875 -11.640625 12.421875 -10.984375 C 12.421875 -10.34375 12.5 -9.6875 12.5 -9.046875 C 12.5 -8.40625 12.359375 -7.75 12.359375 -7.109375 C 12.359375 -6.46875 12.359375 -5.8125 12.421875 -5.171875 C 12.421875 -4.53125 12.5 -3.875 12.5 -3.234375 C 12.5 -2.21875 12.5625 -1.578125 12.78125 -1.078125 C 13.0625 -0.21875 13.578125 0.140625 14.359375 0.21875 C 15.015625 0.21875 15.734375 0.140625 16.59375 0.140625 C 17.515625 0.078125 18.171875 -0.078125 18.671875 -0.21875 C 19.609375 -0.359375 19.890625 -0.71875 20.109375 -1.359375 C 20.328125 -1.859375 20.390625 -2.515625 20.390625 -3.375 C 20.390625 -4.015625 20.328125 -4.734375 20.328125 -5.453125 C 20.328125 -6.109375 20.390625 -6.828125 20.328125 -7.546875 C 20.328125 -8.1875 20.25 -8.90625 20.25 -9.625 C 20.25 -10.265625 20.328125 -10.984375 20.328125 -11.640625 C 20.328125 -12.359375 20.171875 -13.0625 20.171875 -13.71875 C 20.171875 -14.4375 20.46875 -15.078125 20.46875 -15.796875 C 20.46875 -16.4375 20.46875 -17.15625 20.390625 -17.8125 C 20.390625 -18.53125 20.328125 -19.25 20.328125 -19.890625 C 20.328125 -20.53125 20.390625 -21.1875 20.390625 -21.828125 C 20.390625 -22.484375 20.171875 -23.125 20.171875 -23.765625 C 20.171875 -24.421875 20.109375 -25.0625 20.109375 -25.703125 C 20.109375 -26.359375 20.03125 -27 20.03125 -27.640625 C 20.03125 -28.296875 20.03125 -28.9375 20.03125 -29.59375 C 20.03125 -30.234375 19.96875 -30.875 19.96875 -31.53125 C 19.96875 -32.171875 20.109375 -32.8125 20.109375 -33.53125 C 20.109375 -34.109375 20.03125 -34.75 20.03125 -35.46875 C 19.96875 -36.125 20.109375 -36.625 20.03125 -37.34375 C 20.75 -37.34375 21.328125 -37.421875 21.96875 -37.421875 Z M 21.96875 -37.421875 "></path></g></g></g><g fill="#291b25" fill-opacity="1"><g transform="translate(276.191944, 519.760722)"><g><path d="M 12.09375 -22.8125 C 5.28125 -22.8125 1.515625 -18.015625 1.515625 -11.1875 C 1.515625 -4.375 5.28125 0.453125 12.09375 0.453125 C 18.890625 0.453125 22.65625 -4.375 22.65625 -11.1875 C 22.65625 -18.015625 18.890625 -22.8125 12.09375 -22.8125 Z M 12.09375 -1.75 C 7.390625 -1.75 4.640625 -5.375 4.640625 -11.1875 C 4.640625 -17.015625 7.390625 -20.609375 12.09375 -20.609375 C 16.78125 -20.609375 19.546875 -17.015625 19.546875 -11.1875 C 19.546875 -5.375 16.78125 -1.75 12.09375 -1.75 Z M 12.09375 -1.75 "></path></g></g></g><g fill="#291b25" fill-opacity="1"><g transform="translate(299.876319, 519.760722)"><g><path d="M 20.734375 0 L 20.671875 -22.359375 L 17.953125 -22.359375 L 17.953125 -11.1875 C 17.953125 -8.5625 17.984375 -5.34375 18.046875 -2.71875 L 7.515625 -22.359375 L 3.234375 -22.359375 L 3.234375 0 L 6.03125 0 L 6.03125 -11.1875 C 6.03125 -13.8125 6 -17.015625 5.9375 -19.640625 L 16.46875 0 Z M 20.734375 0 "></path></g></g></g><g fill="#291b25" fill-opacity="1"><g transform="translate(322.945094, 519.760722)"><g><path d="M 18.109375 -2.265625 L 6.03125 -2.265625 L 6.03125 -10.046875 L 16.8125 -10.046875 L 16.8125 -12.3125 L 6.03125 -12.3125 L 6.03125 -20.09375 L 17.796875 -20.09375 L 17.796875 -22.359375 L 3.234375 -22.359375 L 3.234375 0 L 18.109375 0 Z M 18.109375 -2.265625 "></path></g></g></g><g fill="#291b25" fill-opacity="1"><g transform="translate(341.769472, 519.760722)"><g></g></g></g><g fill="#291b25" fill-opacity="1"><g transform="translate(348.573471, 519.760722)"><g><path d="M 30.625 -22.359375 L 27.671875 -22.359375 L 22.71875 -2.46875 L 17.65625 -22.03125 L 13.90625 -22.03125 L 8.71875 -2.5 L 4.015625 -22.359375 L 0.84375 -22.359375 L 6.734375 0 L 10.4375 0 L 15.6875 -19.28125 L 20.734375 0 L 24.40625 0 Z M 30.625 -22.359375 "></path></g></g></g><g fill="#291b25" fill-opacity="1"><g transform="translate(379.223842, 519.760722)"><g><path d="M 14.78125 -7.90625 L 17.4375 0 L 20.453125 0 L 12.734375 -22.359375 L 8.96875 -22.359375 L 0.9375 0 L 3.921875 0 L 6.546875 -7.90625 Z M 7.328125 -10.171875 L 10.796875 -20.15625 L 14.03125 -10.171875 Z M 7.328125 -10.171875 "></path></g></g></g><g fill="#291b25" fill-opacity="1"><g transform="translate(399.733022, 519.760722)"><g><path d="M 11.3125 -8.8125 L 19.21875 -22.359375 L 16.078125 -22.359375 L 10.046875 -11.5 L 3.828125 -22.359375 L 0.609375 -22.359375 L 8.515625 -8.8125 L 8.515625 0 L 11.3125 0 Z M 11.3125 -8.8125 "></path></g></g></g><g fill="#291b25" fill-opacity="1"><g transform="translate(418.363005, 519.760722)"><g></g></g></g><g fill="#291b25" fill-opacity="1"><g transform="translate(425.167007, 519.760722)"><g><path d="M 19.828125 -20.09375 L 19.828125 -22.359375 L 1.109375 -22.359375 L 1.109375 -20.09375 L 9.078125 -20.09375 L 9.078125 0 L 11.859375 0 L 11.859375 -20.09375 Z M 19.828125 -20.09375 "></path></g></g></g><g fill="#291b25" fill-opacity="1"><g transform="translate(444.801382, 519.760722)"><g><path d="M 6.03125 0 L 6.03125 -22.359375 L 3.234375 -22.359375 L 3.234375 0 Z M 6.03125 0 "></path></g></g></g><g fill="#291b25" fill-opacity="1"><g transform="translate(453.160571, 519.760722)"><g><path d="M 12.09375 -22.8125 C 5.734375 -22.8125 1.515625 -17.890625 1.515625 -11.078125 C 1.515625 -4.53125 5.15625 0.453125 11.671875 0.453125 C 17.5625 0.453125 20.578125 -3.078125 21 -7.125 L 21.03125 -7.453125 L 18.25 -7.453125 L 18.1875 -7.125 C 17.53125 -3.921875 15.5625 -1.75 11.828125 -1.75 C 7.421875 -1.75 4.640625 -5.703125 4.640625 -11.21875 C 4.640625 -16.625 7.453125 -20.609375 12.015625 -20.609375 C 15.75 -20.609375 17.71875 -18.4375 18.375 -15.234375 L 18.4375 -14.90625 L 21.21875 -14.90625 L 21.1875 -15.234375 C 20.734375 -19.609375 17.765625 -22.8125 12.09375 -22.8125 Z M 12.09375 -22.8125 "></path></g></g></g><g fill="#291b25" fill-opacity="1"><g transform="translate(475.613746, 519.760722)"><g><path d="M 10.203125 -11.4375 L 20.34375 -22.359375 L 17.078125 -22.359375 L 6.03125 -10.46875 L 6.03125 -22.359375 L 3.234375 -22.359375 L 3.234375 0 L 6.03125 0 L 6.03125 -7.265625 L 8.171875 -9.5625 L 15.84375 0 L 19.765625 0 Z M 10.203125 -11.4375 "></path></g></g></g><g fill="#291b25" fill-opacity="1"><g transform="translate(495.150925, 519.760722)"><g><path d="M 18.109375 -2.265625 L 6.03125 -2.265625 L 6.03125 -10.046875 L 16.8125 -10.046875 L 16.8125 -12.3125 L 6.03125 -12.3125 L 6.03125 -20.09375 L 17.796875 -20.09375 L 17.796875 -22.359375 L 3.234375 -22.359375 L 3.234375 0 L 18.109375 0 Z M 18.109375 -2.265625 "></path></g></g></g><g fill="#291b25" fill-opacity="1"><g transform="translate(513.9753, 519.760722)"><g><path d="M 19.828125 -20.09375 L 19.828125 -22.359375 L 1.109375 -22.359375 L 1.109375 -20.09375 L 9.078125 -20.09375 L 9.078125 0 L 11.859375 0 L 11.859375 -20.09375 Z M 19.828125 -20.09375 "></path></g></g></g></svg></svg></g></svg>